# xmcd
#
# Track frame offsets: 
#        150
#        21272
#        40560
#        60095
#
# Disc length: 967 seconds
#
# Revision: 0
# Processed by: cddbd v1.5.1PL2 Copyright (c) Steve Scherf et al.
# Submitted via: ExactAudioCopy v0.95a5
#
DISCID=2103c504
DTITLE=Kenny Chesney - The Road and the Radio Tour
DYEAR=2006
DGENRE=Country
TTITLE0=Key Lime Pie (Be As You Are)
TTITLE1=Flip Flop Summer (Road and the Radio Exclusive Version)
TTITLE2=In This Boat Alone (Road and the Radio Exclusive Version)
TTITLE3=Outta Here (When the Sun Goes Down)
EXTD=
EXTT0=
EXTT1=
EXTT2=
EXTT3=
PLAYORDER=
